<?xml version="1.0" encoding="utf-8"?>
<!-- Generator: Adobe Adobe Illustrator 29.2.0, SVG Export Plug-In . SVG Version: 6.00 Build 0)  -->
<svg version="1.1" id="Layer_1" xmlns="http://www.w3.org/2000/svg" xmlns:xlink="http://www.w3.org/1999/xlink" x="0px" y="0px"
	 width="822px" height="816px" viewBox="0 0 822 816" style="enable-background:new 0 0 822 816;" xml:space="preserve">
<style type="text/css">
	.st0{fill:#3369FF;}
</style>
<g>
	<g>
		<path class="st0" d="M117.97,103.15c109.31,0.16,217.85-0.08,326.46,0.62c23.31,0.16,46.54,2.8,69.38,8.86
			c15.93,4.2,31.85,8.16,46.93,14.61c20.43,8.7,40.4,18.41,59.2,30.61c14.53,9.48,27.74,20.43,40.55,31.85
			c9.01,8.08,17.87,16.7,25.72,26.18c12.59,15.23,23.85,31.23,33.72,48.32c11.19,19.35,20.04,39.7,26.73,60.91
			c2.1,6.68,4.58,13.52,3.96,21.75c-5.21,0.85-10.88,0.85-16.39,1.63c-13.44,1.94-26.88,3.34-40.17,6.53
			c-10.49,2.49-21.05,4.66-31.54,7.46c-14.99,3.96-29.52,9.32-44.13,14.61c-16.55,5.9-32.63,13.05-48.25,21.05
			c-11.96,6.14-23.46,13.36-35.04,20.28c-12.35,7.38-23.77,16.08-35.5,24.32c-11.42,8-22.14,16.94-31.78,26.88
			c-14.53,14.92-28.51,30.38-39.7,48.32c-7.85,12.59-14.99,25.25-19.42,39.39c-3.5,11.34-6.14,22.76-5.28,34.73
			c0.23,3.26,0.39,5.52,4.66,5.98c24.32,2.72,48.17-1.17,71.24-7.77c25.25-7.23,48.17-20.28,68.06-37.45
			c11.03-9.56,19.81-21.68,28.28-33.87c10.72-15.38,17.25-32.4,21.29-50.19c2.95-12.97,4.74-26.42,4.74-39.78
			c0-4.04,1.17-6.45,4.82-7.85c16.7-6.53,33.17-13.52,50.42-18.65c16.63-4.97,33.48-8.78,50.34-12.66c9.01-2.1,18.41-2.8,27.66-3.42
			c7.92-0.47,15.85-2.95,24.71-0.93c-0.16,15.69,4.82,31.31,1.79,47.7c-1.79,9.56,0,19.58-1.4,29.45
			c-2.56,18.57-6.76,36.67-12.59,54.54c-6.22,19.03-13.52,37.68-24.01,54.62c-11.58,18.8-24.55,36.75-40.32,52.36
			c-9.25,9.17-18.41,18.26-28.98,26.34c-9.25,7.15-18.8,14.61-28.2,21.68c-11.27,8.39-24.24,14.61-37.21,20.36
			c-14.76,6.53-29.52,12.9-44.75,18.26c-20.28,7.15-41.41,10.64-62.39,14.37c-7.23,1.32-14.92,1.71-22.53,1.86
			c-50.97,1.32-101.93,1.86-152.9,1.09c-72.95-1.17-145.9,0.7-218.93,0.31c-7.3,0-9.48-3.26-9.48-9.09
			c-0.16-24.01-1.17-48.09,0.31-72.02c1.17-19.35,0.47-38.61,0.93-57.88c0.08-5.13,1.63-6.68,6.76-6.76
			c18.65-0.16,37.37,0.54,55.78-1.63c17.01-2.02,34.11-4.43,51.04-7.15c23.23-3.73,45.37-11.27,67.75-17.87
			c14.3-4.2,27.97-10.95,41.49-17.71c16.55-8.31,32.47-17.48,47.78-27.81c14.06-9.48,27.89-19.35,40.87-30.38
			c8.93-7.61,18.41-14.61,26.73-22.84c9.63-9.48,20.36-17.64,30.69-26.26c16.55-13.75,33.56-26.73,51.74-38.3
			c17.79-11.34,36.05-21.75,54.69-31.39c8.16-4.2,16.78-7.61,25.48-10.49c5.83-1.86,6.06-4.58,4.51-9.63
			c-5.13-16.24-14.68-29.91-24.4-43.43c-17.48-24.24-41.1-41.18-68.29-52.21c-17.56-7.15-36.44-11.5-56.02-12.04
			c-64.64-2.02-129.2-0.39-193.84-0.39c-43.58,0-87.17,0.47-130.83,0.39c-7.38,0-14.84,0-22.22,0.08c-8.24,0.08-9.56-1.63-9.56-9.48
			c0-37.6,0.16-75.21-0.16-112.89c-0.08-6.06,1.63-8.08,7.77-7.85C97,103.77,107.17,103.31,117.97,103.15z"/>
		<path class="st0" d="M79.21,318.2c0.47-17.87-1.17-35.12,1.32-52.6c14.06,0,27.43,0,40.79,0c28.59,0,57.26,0.23,85.85-0.16
			c6.6-0.08,8.86,2.02,7.92,8.31c-0.31,2.25,0,4.58-0.08,6.91c-0.54,31.93,2.33,63.86,1.48,95.87
			c-0.39,14.99-0.23,15.15-15.38,15.15c-38.07,0-76.14-0.16-114.21,0.16c-6.14,0.08-7.92-1.79-7.77-7.85
			C79.36,362.25,79.21,340.58,79.21,318.2z"/>
		<path class="st0" d="M325.95,265.53c17.79,0,34.88,0.16,51.98-0.08c4.89-0.08,6.76,1.71,6.37,6.45c-0.23,2.72-0.08,5.52-0.08,8.31
			c-0.62,33.17,2.41,66.19,1.4,99.37c-0.31,9.79-2.25,11.96-12.12,12.04c-39.23,0-78.55-0.08-117.78,0.08
			c-5.67,0-7.61-1.48-7.54-7.38c0.23-36.2,0.16-72.41,0.08-108.69c0-3.34,1.01-6.29,1.94-10.1
			C275.07,265.53,300.16,265.53,325.95,265.53z"/>
		<path class="st0" d="M91.79,548.09c-2.72,0-4.82,0.08-6.91,0c-4.04-0.16-5.83-1.94-5.83-6.37c0.16-37.6,0.23-75.21,0-112.81
			c-0.08-6.68,3.65-6.76,8.31-6.76c32.09,0,64.25,0,96.34,0c8.08,0,16.16,0,24.24,0c5.75,0,8.7,2.1,8.7,8.55
			c-0.23,32.32-0.23,64.64-0.08,96.88c0,5.59-2.02,8.62-7.3,9.4c-21.21,3.34-42.42,7.15-63.71,9.56
			C128,548.48,110.2,548.56,91.79,548.09z"/>
		<path class="st0" d="M381.42,432.8c0.08,9.71-8.16,12.82-13.21,17.87c-12.04,11.96-26.8,20.67-40.32,30.92
			c-4.51,3.34-9.4,6.14-14.37,8.86c-15.15,8.31-29.83,17.56-46.3,23.23c-3.96,1.4-7.61,3.73-11.5,5.59
			c-4.74,2.33-7.38,1.24-7.38-4.51c0.08-28.82,0.16-57.72-0.08-86.55c-0.08-5.83,3.26-6.45,7.46-6.14
			c38.92,3.03,77.92,0.62,116.85,1.24C379.17,423.4,382.67,425.03,381.42,432.8z"/>
		
			<ellipse transform="matrix(0.9239 -0.3827 0.3827 0.9239 -162.8703 222.0608)" class="st0" cx="476.75" cy="520.43" rx="20.51" ry="20.51"/>
	</g>
</g>
</svg>
